# MagicaVoxel @ Ephtracy

# group
o 

# material
mtllib Vox pink flower.mtl
usemtl palette

# normals
vn -1 0 0
vn 1 0 0
vn 0 0 1
vn 0 0 -1
vn 0 -1 0
vn 0 1 0

# texcoords
vt 0.970703 0.5
vt 0.974609 0.5
vt 0.978516 0.5

# verts
v -0.3 0.5 0.4
v -0.3 0.5 0.1
v -0.3 0.6 0.4
v -0.3 0.6 0.1
v -0.2 0.5 0.5
v -0.2 0.5 0.4
v -0.2 0.5 0.1
v -0.2 0.5 0
v -0.2 0.6 0.5
v -0.2 0.6 0.4
v -0.2 0.6 0.1
v -0.2 0.6 0
v -0.1 0 0.3
v -0.1 0 0.2
v -0.1 0.1 0.4
v -0.1 0.1 0.3
v -0.1 0.2 0.4
v -0.1 0.2 0.3
v -0.1 0.2 0.2
v -0.1 0.2 0.1
v -0.1 0.3 0.2
v -0.1 0.3 0.1
v -0.1 0.5 0.3
v -0.1 0.5 0.2
v 2.98023e-08 0 0.3
v 2.98023e-08 0 0.2
v 2.98023e-08 0.1 0.4
v 2.98023e-08 0.1 0.3
v 2.98023e-08 0.2 0.4
v 2.98023e-08 0.2 0.3
v 2.98023e-08 0.2 0.2
v 2.98023e-08 0.2 0.1
v 2.98023e-08 0.3 0.2
v 2.98023e-08 0.3 0.1
v 2.98023e-08 0.5 0.3
v 2.98023e-08 0.5 0.2
v 0.1 0.5 0.5
v 0.1 0.5 0.4
v 0.1 0.5 0.1
v 0.1 0.5 0
v 0.1 0.6 0.5
v 0.1 0.6 0.4
v 0.1 0.6 0.1
v 0.1 0.6 0
v 0.2 0.5 0.4
v 0.2 0.5 0.1
v 0.2 0.6 0.4
v 0.2 0.6 0.1
v -0.2 0.5 0.5
v -0.2 0.6 0.5
v 0.1 0.5 0.5
v 0.1 0.6 0.5
v -0.3 0.5 0.4
v -0.3 0.6 0.4
v -0.2 0.5 0.4
v -0.2 0.6 0.4
v -0.1 0.1 0.4
v -0.1 0.2 0.4
v 2.98023e-08 0.1 0.4
v 2.98023e-08 0.2 0.4
v 0.1 0.5 0.4
v 0.1 0.6 0.4
v 0.2 0.5 0.4
v 0.2 0.6 0.4
v -0.1 0 0.3
v -0.1 0.1 0.3
v -0.1 0.2 0.3
v -0.1 0.5 0.3
v 2.98023e-08 0 0.3
v 2.98023e-08 0.1 0.3
v 2.98023e-08 0.2 0.3
v 2.98023e-08 0.5 0.3
v -0.1 0 0.2
v -0.1 0.2 0.2
v -0.1 0.3 0.2
v -0.1 0.5 0.2
v 2.98023e-08 0 0.2
v 2.98023e-08 0.2 0.2
v 2.98023e-08 0.3 0.2
v 2.98023e-08 0.5 0.2
v -0.3 0.5 0.1
v -0.3 0.6 0.1
v -0.2 0.5 0.1
v -0.2 0.6 0.1
v -0.1 0.2 0.1
v -0.1 0.3 0.1
v 2.98023e-08 0.2 0.1
v 2.98023e-08 0.3 0.1
v 0.1 0.5 0.1
v 0.1 0.6 0.1
v 0.2 0.5 0.1
v 0.2 0.6 0.1
v -0.2 0.5 0
v -0.2 0.6 0
v 0.1 0.5 0
v 0.1 0.6 0
v -0.1 0 0.3
v 2.98023e-08 0 0.3
v -0.1 0 0.2
v 2.98023e-08 0 0.2
v -0.1 0.1 0.4
v 2.98023e-08 0.1 0.4
v -0.1 0.1 0.3
v 2.98023e-08 0.1 0.3
v -0.1 0.2 0.2
v 2.98023e-08 0.2 0.2
v -0.1 0.2 0.1
v 2.98023e-08 0.2 0.1
v -0.2 0.5 0.5
v 0.1 0.5 0.5
v -0.3 0.5 0.4
v -0.2 0.5 0.4
v -0.1 0.5 0.4
v 2.98023e-08 0.5 0.4
v 0.1 0.5 0.4
v 0.2 0.5 0.4
v -0.2 0.5 0.3
v -0.1 0.5 0.3
v 2.98023e-08 0.5 0.3
v 0.1 0.5 0.3
v -0.2 0.5 0.2
v -0.1 0.5 0.2
v 2.98023e-08 0.5 0.2
v 0.1 0.5 0.2
v -0.3 0.5 0.1
v -0.2 0.5 0.1
v -0.1 0.5 0.1
v 2.98023e-08 0.5 0.1
v 0.1 0.5 0.1
v 0.2 0.5 0.1
v -0.2 0.5 0
v 0.1 0.5 0
v -0.1 0.2 0.4
v 2.98023e-08 0.2 0.4
v -0.1 0.2 0.3
v 2.98023e-08 0.2 0.3
v -0.1 0.3 0.2
v 2.98023e-08 0.3 0.2
v -0.1 0.3 0.1
v 2.98023e-08 0.3 0.1
v -0.2 0.6 0.5
v 0.1 0.6 0.5
v -0.3 0.6 0.4
v -0.2 0.6 0.4
v -0.1 0.6 0.4
v 2.98023e-08 0.6 0.4
v 0.1 0.6 0.4
v 0.2 0.6 0.4
v -0.2 0.6 0.3
v -0.1 0.6 0.3
v 2.98023e-08 0.6 0.3
v 0.1 0.6 0.3
v -0.2 0.6 0.2
v -0.1 0.6 0.2
v 2.98023e-08 0.6 0.2
v 0.1 0.6 0.2
v -0.3 0.6 0.1
v -0.2 0.6 0.1
v -0.1 0.6 0.1
v 2.98023e-08 0.6 0.1
v 0.1 0.6 0.1
v 0.2 0.6 0.1
v -0.2 0.6 0
v 0.1 0.6 0

# faces
f 3/1/1 2/1/1 1/1/1
f 4/1/1 2/1/1 3/1/1
f 9/1/1 6/1/1 5/1/1
f 10/1/1 6/1/1 9/1/1
f 11/1/1 8/1/1 7/1/1
f 12/1/1 8/1/1 11/1/1
f 16/2/1 14/2/1 13/2/1
f 17/2/1 16/2/1 15/2/1
f 18/2/1 14/2/1 16/2/1
f 18/2/1 16/2/1 17/2/1
f 19/2/1 14/2/1 18/2/1
f 21/2/1 20/2/1 19/2/1
f 21/2/1 19/2/1 18/2/1
f 22/2/1 20/2/1 21/2/1
f 23/2/1 21/2/1 18/2/1
f 24/2/1 21/2/1 23/2/1
f 25/2/2 26/2/2 28/2/2
f 27/2/2 28/2/2 29/2/2
f 28/2/2 26/2/2 30/2/2
f 29/2/2 28/2/2 30/2/2
f 30/2/2 26/2/2 31/2/2
f 31/2/2 32/2/2 33/2/2
f 30/2/2 31/2/2 33/2/2
f 33/2/2 32/2/2 34/2/2
f 30/2/2 33/2/2 35/2/2
f 35/2/2 33/2/2 36/2/2
f 37/1/2 38/1/2 41/1/2
f 41/1/2 38/1/2 42/1/2
f 39/1/2 40/1/2 43/1/2
f 43/1/2 40/1/2 44/1/2
f 45/1/2 46/1/2 47/1/2
f 47/1/2 46/1/2 48/1/2
f 51/1/3 50/1/3 49/1/3
f 52/1/3 50/1/3 51/1/3
f 55/1/3 54/1/3 53/1/3
f 56/1/3 54/1/3 55/1/3
f 59/2/3 58/2/3 57/2/3
f 60/2/3 58/2/3 59/2/3
f 63/1/3 62/1/3 61/1/3
f 64/1/3 62/1/3 63/1/3
f 69/2/3 66/2/3 65/2/3
f 70/2/3 66/2/3 69/2/3
f 71/2/3 68/2/3 67/2/3
f 72/2/3 68/2/3 71/2/3
f 73/2/4 74/2/4 77/2/4
f 77/2/4 74/2/4 78/2/4
f 75/2/4 76/2/4 79/2/4
f 79/2/4 76/2/4 80/2/4
f 81/1/4 82/1/4 83/1/4
f 83/1/4 82/1/4 84/1/4
f 85/2/4 86/2/4 87/2/4
f 87/2/4 86/2/4 88/2/4
f 89/1/4 90/1/4 91/1/4
f 91/1/4 90/1/4 92/1/4
f 93/1/4 94/1/4 95/1/4
f 95/1/4 94/1/4 96/1/4
f 99/2/5 98/2/5 97/2/5
f 100/2/5 98/2/5 99/2/5
f 103/2/5 102/2/5 101/2/5
f 104/2/5 102/2/5 103/2/5
f 107/2/5 106/2/5 105/2/5
f 108/2/5 106/2/5 107/2/5
f 112/1/5 110/1/5 109/1/5
f 113/1/5 110/1/5 112/1/5
f 114/1/5 110/1/5 113/1/5
f 115/1/5 110/1/5 114/1/5
f 117/1/5 112/1/5 111/1/5
f 117/1/5 113/1/5 112/1/5
f 118/3/5 114/3/5 113/3/5
f 118/1/5 113/1/5 117/1/5
f 119/1/5 116/1/5 115/1/5
f 119/3/5 114/3/5 118/3/5
f 119/1/5 115/1/5 114/1/5
f 120/1/5 116/1/5 119/1/5
f 121/3/5 118/3/5 117/3/5
f 121/1/5 117/1/5 111/1/5
f 122/3/5 118/3/5 121/3/5
f 123/3/5 120/3/5 119/3/5
f 124/1/5 116/1/5 120/1/5
f 124/3/5 120/3/5 123/3/5
f 125/1/5 122/1/5 121/1/5
f 125/1/5 121/1/5 111/1/5
f 126/1/5 122/1/5 125/1/5
f 127/3/5 123/3/5 122/3/5
f 127/1/5 122/1/5 126/1/5
f 128/1/5 124/1/5 123/1/5
f 128/3/5 123/3/5 127/3/5
f 129/1/5 116/1/5 124/1/5
f 129/1/5 124/1/5 128/1/5
f 130/1/5 116/1/5 129/1/5
f 131/1/5 128/1/5 127/1/5
f 131/1/5 129/1/5 128/1/5
f 131/1/5 127/1/5 126/1/5
f 132/1/5 129/1/5 131/1/5
f 133/2/6 134/2/6 135/2/6
f 135/2/6 134/2/6 136/2/6
f 137/2/6 138/2/6 139/2/6
f 139/2/6 138/2/6 140/2/6
f 141/1/6 142/1/6 144/1/6
f 144/1/6 142/1/6 145/1/6
f 145/1/6 142/1/6 146/1/6
f 146/1/6 142/1/6 147/1/6
f 143/1/6 144/1/6 149/1/6
f 144/1/6 145/1/6 149/1/6
f 145/3/6 146/3/6 150/3/6
f 149/1/6 145/1/6 150/1/6
f 147/1/6 148/1/6 151/1/6
f 150/3/6 146/3/6 151/3/6
f 146/1/6 147/1/6 151/1/6
f 151/1/6 148/1/6 152/1/6
f 149/3/6 150/3/6 153/3/6
f 143/1/6 149/1/6 153/1/6
f 151/3/6 152/3/6 153/3/6
f 150/3/6 151/3/6 153/3/6
f 153/3/6 152/3/6 154/3/6
f 154/3/6 152/3/6 155/3/6
f 152/1/6 148/1/6 156/1/6
f 155/3/6 152/3/6 156/3/6
f 143/1/6 153/1/6 157/1/6
f 153/1/6 154/1/6 157/1/6
f 157/1/6 154/1/6 158/1/6
f 154/3/6 155/3/6 159/3/6
f 158/1/6 154/1/6 159/1/6
f 155/1/6 156/1/6 160/1/6
f 159/3/6 155/3/6 160/3/6
f 156/1/6 148/1/6 161/1/6
f 160/1/6 156/1/6 161/1/6
f 161/1/6 148/1/6 162/1/6
f 159/1/6 160/1/6 163/1/6
f 160/1/6 161/1/6 163/1/6
f 158/1/6 159/1/6 163/1/6
f 163/1/6 161/1/6 164/1/6
